<svg width="46" height="14" viewBox="0 0 46 14" fill="none" xmlns="http://www.w3.org/2000/svg">
<path d="M44.9455 8.55951C45.5514 8.25659 45.5514 7.27209 44.9455 6.96917C40.2502 4.39434 35.4792 2.0467 30.3296 0.683559C29.5723 0.532098 28.815 1.36513 29.2694 2.0467C30.3296 3.56131 31.617 4.84872 33.1316 5.98468C22.5294 5.68176 11.5485 4.24288 1.09768 6.74198C0.340378 6.89344 0.491837 8.18074 1.24926 8.105C12.0787 6.74198 22.8324 7.80221 33.6618 7.95354C32.5259 9.24096 31.3899 10.5284 30.254 11.7401C29.7239 12.2702 30.0268 13.4062 30.9355 13.3305C35.9336 12.7246 40.6289 11.0585 44.9455 8.55951ZM35.9336 7.72648C36.6152 7.27209 36.4637 5.98468 35.4035 5.98468C35.3278 5.98468 35.252 5.98468 35.252 5.98468C34.3433 5.07591 33.4345 4.24288 32.5258 3.25839C36.0093 4.47007 39.2657 5.98468 42.5222 7.72635C39.5687 9.24096 36.5395 10.3769 33.2831 10.9828C34.0404 10.1497 34.7977 9.24096 35.6307 8.4078C35.9336 8.25659 36.0093 7.95354 35.9336 7.72648Z" fill="white"/>
</svg>
