<svg width="46" height="14" viewBox="0 0 46 14" fill="none" xmlns="http://www.w3.org/2000/svg">
<path d="M1.05448 5.44049C0.448637 5.74341 0.448637 6.72791 1.05448 7.03083C5.74976 9.60566 10.5208 11.9533 15.6704 13.3164C16.4277 13.4679 17.185 12.6349 16.7306 11.9533C15.6704 10.4387 14.383 9.15128 12.8684 8.01532C23.4706 8.31824 34.4515 9.75712 44.9023 7.25802C45.6596 7.10655 45.5082 5.81926 44.7507 5.89499C33.9213 7.25802 23.1676 6.19779 12.3382 6.04646C13.4741 4.75904 14.6101 3.47163 15.746 2.25994C16.2761 1.72983 15.9732 0.59375 15.0645 0.669481C10.0664 1.27545 5.37111 2.94151 1.05448 5.44049ZM10.0664 6.27352C9.38481 6.72791 9.53627 8.01532 10.5965 8.01532C10.6722 8.01532 10.748 8.01532 10.748 8.01532C11.6567 8.92408 12.5655 9.75712 13.4742 10.7416C9.99065 9.52993 6.73425 8.01532 3.47785 6.27365C6.43133 4.75904 9.46054 3.62309 12.7169 3.01724C11.9596 3.85028 11.2023 4.75904 10.3693 5.5922C10.0664 5.74341 9.99065 6.04646 10.0664 6.27352Z" fill="white"/>
</svg>
