<svg width="28" height="27" viewBox="0 0 28 27" fill="none" xmlns="http://www.w3.org/2000/svg">
<path d="M27.095 9.50747L18.7012 8.27564L14.9489 0.594228C14.8464 0.383916 14.6778 0.213663 14.4695 0.110176C13.9472 -0.150211 13.3124 0.0667782 13.0513 0.594228L9.29898 8.27564L0.905123 9.50747C0.673705 9.54085 0.462123 9.65102 0.30013 9.81793C0.10429 10.0212 -0.00362635 10.2946 9.30496e-05 10.5782C0.00381244 10.8618 0.118864 11.1322 0.319966 11.3302L6.39303 17.3091L4.95824 25.7516C4.92459 25.948 4.94612 26.15 5.02037 26.3346C5.09462 26.5193 5.21862 26.6793 5.37833 26.7964C5.53803 26.9135 5.72703 26.9831 5.92391 26.9973C6.12079 27.0115 6.31767 26.9697 6.49221 26.8766L14.0001 22.8907L21.5079 26.8766C21.7129 26.9868 21.9509 27.0235 22.179 26.9834C22.7543 26.8833 23.1411 26.3325 23.0419 25.7516L21.6071 17.3091L27.6802 11.3302C27.8455 11.1666 27.9546 10.9529 27.9876 10.7193C28.0769 10.1351 27.6736 9.59426 27.095 9.50747Z" fill="#FFC107"/>
</svg>
